<svg width="423" height="262" viewBox="0 0 423 262" fill="none" xmlns="http://www.w3.org/2000/svg">
<path fill-rule="evenodd" clip-rule="evenodd" d="M212.724 16.9261L131.584 101.865L128.666 104.919L125.728 101.914L109.994 85.8308V154.447H177.112L161.381 138.364L158.432 135.35L161.429 132.377L230.24 64.0466L233.102 62.8467H357.385H361.504L361.505 194.11V195.854L360.296 197.088L313.239 245.195H376.845L406.49 214.886L406.491 16.9261H212.724Z" fill="#CD47E1"/>
<path fill-rule="evenodd" clip-rule="evenodd" d="M361.502 62.8266L361.503 194.11V195.853L360.295 197.088L313.236 245.195L376.843 245.194L406.489 214.885L406.49 110.664C409.283 79.9983 385.406 62.8266 361.502 62.8266Z" fill="url(#paint0_linear_59_7576)"/>
<path fill-rule="evenodd" clip-rule="evenodd" d="M212.785 245.178L293.924 160.239L296.842 157.184L299.782 160.189L315.515 176.273V107.656H248.397L264.128 123.739L267.074 126.754L264.079 129.727L195.27 198.056L192.405 199.257H68.1242H64.0049V195.045V67.9934V66.25L65.2113 65.0155L112.269 16.9078L48.6651 16.9091L19.0188 47.2182L19.0176 245.178H212.785Z" fill="#15E1E3"/>
<path fill-rule="evenodd" clip-rule="evenodd" d="M64.2295 199.276L64.2283 67.9922V66.2487L65.4358 65.0142L112.495 16.9078L48.8885 16.9091L19.2421 47.2182L19.2409 151.438C16.4483 182.105 40.3239 199.276 64.2295 199.276Z" fill="url(#paint1_linear_59_7576)"/>
<defs>
<linearGradient id="paint0_linear_59_7576" x1="359.974" y1="245.194" x2="359.974" y2="62.8262" gradientUnits="userSpaceOnUse">
<stop stop-color="#CD47E1"/>
<stop offset="1" stop-color="#760CA3"/>
</linearGradient>
<linearGradient id="paint1_linear_59_7576" x1="65.7567" y1="199.277" x2="65.7567" y2="16.9078" gradientUnits="userSpaceOnUse">
<stop stop-color="#0D87D0"/>
<stop offset="1" stop-color="#15E1E3"/>
</linearGradient>
</defs>
</svg>
